<mxfile host="app.diagrams.net" modified="2020-12-23T03:55:40.111Z" agent="5.0 (Macintosh; Intel Mac OS X 10_15_7) AppleWebKit/537.36 (KHTML, like Gecko) Chrome/87.0.4280.88 Safari/537.36" etag="cwpkhYVPbMmd5KiukL1J" version="14.1.1" type="github">
  <diagram id="2Hf9CZ00S8ynS14T1NxW" name="Page-1">
    <mxGraphModel dx="4899" dy="2023" grid="1" gridSize="10" guides="1" tooltips="1" connect="1" arrows="1" fold="1" page="1" pageScale="1" pageWidth="1654" pageHeight="2336" math="0" shadow="0">
      <root>
        <mxCell id="0" />
        <mxCell id="1" parent="0" />
        <mxCell id="sBYjH0_UJTp_EUdpmLKk-81" value="" style="rounded=1;whiteSpace=wrap;html=1;fillColor=none;fontSize=10;dashed=1;" parent="1" vertex="1">
          <mxGeometry x="-205" y="1228" width="320" height="310" as="geometry" />
        </mxCell>
        <mxCell id="sBYjH0_UJTp_EUdpmLKk-93" value="" style="rounded=1;whiteSpace=wrap;html=1;fillColor=none;fontSize=10;dashed=1;" parent="1" vertex="1">
          <mxGeometry x="-675" y="1228" width="320" height="310" as="geometry" />
        </mxCell>
        <mxCell id="sBYjH0_UJTp_EUdpmLKk-76" value="" style="rounded=0;whiteSpace=wrap;html=1;fillColor=none;fontSize=14;fontColor=#000000;strokeColor=#FFB570;strokeWidth=2;" parent="1" vertex="1">
          <mxGeometry x="-1225" y="1050" width="1930" height="560" as="geometry" />
        </mxCell>
        <mxCell id="sBYjH0_UJTp_EUdpmLKk-37" value="" style="ellipse;shape=cloud;whiteSpace=wrap;html=1;fillColor=none;" parent="1" vertex="1">
          <mxGeometry x="-845" y="340" width="260" height="170" as="geometry" />
        </mxCell>
        <mxCell id="sBYjH0_UJTp_EUdpmLKk-1" value="" style="rounded=0;whiteSpace=wrap;html=1;fillColor=none;fontSize=14;fontColor=#000000;strokeColor=#FFB570;strokeWidth=2;" parent="1" vertex="1">
          <mxGeometry x="-1560" y="50" width="1030" height="830" as="geometry" />
        </mxCell>
        <mxCell id="sBYjH0_UJTp_EUdpmLKk-3" value="" style="rounded=1;whiteSpace=wrap;html=1;fillColor=none;fontSize=10;dashed=1;" parent="1" vertex="1">
          <mxGeometry x="-1145" y="1228" width="320" height="310" as="geometry" />
        </mxCell>
        <mxCell id="sBYjH0_UJTp_EUdpmLKk-4" value="1" style="ellipse;whiteSpace=wrap;html=1;aspect=fixed;strokeColor=#FFB570;fontSize=14;" parent="1" vertex="1">
          <mxGeometry x="-1125" y="1248" width="30" height="30" as="geometry" />
        </mxCell>
        <mxCell id="sBYjH0_UJTp_EUdpmLKk-5" value="" style="pointerEvents=1;verticalLabelPosition=bottom;shadow=0;dashed=0;align=center;html=1;verticalAlign=top;shape=mxgraph.electrical.miscellaneous.terminal_board" parent="1" vertex="1">
          <mxGeometry x="-1025" y="1398" width="40" height="80" as="geometry" />
        </mxCell>
        <mxCell id="sBYjH0_UJTp_EUdpmLKk-6" value="" style="pointerEvents=1;verticalLabelPosition=bottom;shadow=0;dashed=0;align=center;html=1;verticalAlign=top;shape=mxgraph.electrical.miscellaneous.terminal_board" parent="1" vertex="1">
          <mxGeometry x="-985" y="1398" width="40" height="80" as="geometry" />
        </mxCell>
        <mxCell id="sBYjH0_UJTp_EUdpmLKk-7" value="" style="endArrow=classic;html=1;dashed=1;edgeStyle=orthogonalEdgeStyle;exitX=0.5;exitY=0;exitDx=0;exitDy=0;startArrow=classic;" parent="1" source="sBYjH0_UJTp_EUdpmLKk-9" edge="1">
          <mxGeometry width="50" height="50" relative="1" as="geometry">
            <mxPoint x="-985" y="1373" as="sourcePoint" />
            <mxPoint x="-895" y="1308" as="targetPoint" />
            <Array as="points">
              <mxPoint x="-985" y="1348" />
              <mxPoint x="-895" y="1348" />
            </Array>
          </mxGeometry>
        </mxCell>
        <mxCell id="sBYjH0_UJTp_EUdpmLKk-8" value="USB Cable" style="edgeLabel;html=1;align=center;verticalAlign=middle;resizable=0;points=[];" parent="sBYjH0_UJTp_EUdpmLKk-7" vertex="1" connectable="0">
          <mxGeometry x="0.3078" y="-1" relative="1" as="geometry">
            <mxPoint as="offset" />
          </mxGeometry>
        </mxCell>
        <mxCell id="sBYjH0_UJTp_EUdpmLKk-9" value="" style="whiteSpace=wrap;html=1;aspect=fixed;fillColor=none;strokeColor=#3333FF;" parent="1" vertex="1">
          <mxGeometry x="-1035" y="1388" width="100" height="100" as="geometry" />
        </mxCell>
        <mxCell id="sBYjH0_UJTp_EUdpmLKk-10" value="" style="verticalLabelPosition=bottom;html=1;verticalAlign=top;align=center;strokeColor=none;fillColor=#00BEF2;shape=mxgraph.azure.computer;pointerEvents=1;" parent="1" vertex="1">
          <mxGeometry x="-915" y="1258" width="50" height="45" as="geometry" />
        </mxCell>
        <mxCell id="sBYjH0_UJTp_EUdpmLKk-11" value="FCT Fixture A" style="text;html=1;strokeColor=none;fillColor=none;align=center;verticalAlign=middle;whiteSpace=wrap;rounded=0;fontColor=#3333FF;" parent="1" vertex="1">
          <mxGeometry x="-1025" y="1488" width="80" height="20" as="geometry" />
        </mxCell>
        <mxCell id="sBYjH0_UJTp_EUdpmLKk-12" value="Common Wi-Fi Modules" style="text;html=1;strokeColor=none;fillColor=none;align=center;verticalAlign=middle;whiteSpace=wrap;rounded=0;fontSize=10;" parent="1" vertex="1">
          <mxGeometry x="-1125" y="1428" width="100" height="20" as="geometry" />
        </mxCell>
        <mxCell id="sBYjH0_UJTp_EUdpmLKk-15" value="" style="html=1;shadow=0;dashed=0;align=center;verticalAlign=middle;shape=mxgraph.arrows2.arrow;dy=0.6;dx=40;notch=0;strokeColor=#000000;fillColor=none;fontSize=10;fontColor=#000000;" parent="1" vertex="1">
          <mxGeometry x="-775" y="1368" width="60" height="30" as="geometry" />
        </mxCell>
        <mxCell id="sBYjH0_UJTp_EUdpmLKk-25" value="Wi-Fi Module Functional Test" style="text;html=1;strokeColor=none;fillColor=none;align=center;verticalAlign=middle;whiteSpace=wrap;rounded=0;fontSize=14;" parent="1" vertex="1">
          <mxGeometry x="-1093" y="1253" width="150" height="20" as="geometry" />
        </mxCell>
        <mxCell id="sBYjH0_UJTp_EUdpmLKk-26" value="Wi-Fi Module Certificates Generation&lt;br&gt;&amp;amp; Security Enabled" style="text;html=1;strokeColor=none;fillColor=none;align=center;verticalAlign=middle;whiteSpace=wrap;rounded=0;fontSize=14;" parent="1" vertex="1">
          <mxGeometry x="-615" y="1253" width="150" height="20" as="geometry" />
        </mxCell>
        <mxCell id="sBYjH0_UJTp_EUdpmLKk-27" value="&lt;font style=&quot;font-size: 20px&quot;&gt;Wi-Fi Common Module Manufacture Testing Workflow&lt;/font&gt;" style="text;html=1;strokeColor=none;fillColor=none;align=center;verticalAlign=middle;whiteSpace=wrap;rounded=0;fontSize=14;fontStyle=1" parent="1" vertex="1">
          <mxGeometry x="-506.5" y="1660" width="550" height="20" as="geometry" />
        </mxCell>
        <mxCell id="sBYjH0_UJTp_EUdpmLKk-28" value="AWS Cloud- CA" style="outlineConnect=0;fontColor=#232F3E;gradientColor=none;strokeColor=#232F3E;fillColor=#ffffff;dashed=0;verticalLabelPosition=bottom;verticalAlign=top;align=center;html=1;fontSize=12;fontStyle=0;aspect=fixed;shape=mxgraph.aws4.resourceIcon;resIcon=mxgraph.aws4.aws_cloud;" parent="1" vertex="1">
          <mxGeometry x="-755" y="381" width="60" height="60" as="geometry" />
        </mxCell>
        <mxCell id="sBYjH0_UJTp_EUdpmLKk-29" value="AWS Cloud- Production A &lt;br&gt;(e.g. Smart Home)" style="outlineConnect=0;fontColor=#232F3E;gradientColor=none;strokeColor=#232F3E;fillColor=#ffffff;dashed=0;verticalLabelPosition=bottom;verticalAlign=top;align=center;html=1;fontSize=12;fontStyle=0;aspect=fixed;shape=mxgraph.aws4.resourceIcon;resIcon=mxgraph.aws4.aws_cloud;" parent="1" vertex="1">
          <mxGeometry x="-1450" y="94" width="60" height="60" as="geometry" />
        </mxCell>
        <mxCell id="sBYjH0_UJTp_EUdpmLKk-30" value="AWS Cloud- Production B&lt;br&gt;(e.g. Commerical Building)" style="outlineConnect=0;fontColor=#232F3E;gradientColor=none;strokeColor=#232F3E;fillColor=#ffffff;dashed=0;verticalLabelPosition=bottom;verticalAlign=top;align=center;html=1;fontSize=12;fontStyle=0;aspect=fixed;shape=mxgraph.aws4.resourceIcon;resIcon=mxgraph.aws4.aws_cloud;" parent="1" vertex="1">
          <mxGeometry x="-1450" y="280" width="60" height="60" as="geometry" />
        </mxCell>
        <mxCell id="sBYjH0_UJTp_EUdpmLKk-31" value="AWS Cloud- Production C&lt;br&gt;(e.g. Elderly Care)" style="outlineConnect=0;fontColor=#232F3E;gradientColor=none;strokeColor=#232F3E;fillColor=#ffffff;dashed=0;verticalLabelPosition=bottom;verticalAlign=top;align=center;html=1;fontSize=12;fontStyle=0;aspect=fixed;shape=mxgraph.aws4.resourceIcon;resIcon=mxgraph.aws4.aws_cloud;" parent="1" vertex="1">
          <mxGeometry x="-1446.5" y="464" width="60" height="60" as="geometry" />
        </mxCell>
        <mxCell id="sBYjH0_UJTp_EUdpmLKk-32" value="AWS Cloud- Production D&lt;br&gt;(e.g. Connect to 3rd party Cloud)" style="outlineConnect=0;fontColor=#232F3E;gradientColor=none;strokeColor=#232F3E;fillColor=#ffffff;dashed=0;verticalLabelPosition=bottom;verticalAlign=top;align=center;html=1;fontSize=12;fontStyle=0;aspect=fixed;shape=mxgraph.aws4.resourceIcon;resIcon=mxgraph.aws4.aws_cloud;" parent="1" vertex="1">
          <mxGeometry x="-1442" y="657" width="60" height="60" as="geometry" />
        </mxCell>
        <mxCell id="sBYjH0_UJTp_EUdpmLKk-36" value="" style="ellipse;shape=cloud;whiteSpace=wrap;html=1;fillColor=none;" parent="1" vertex="1">
          <mxGeometry x="-1545" y="70" width="260" height="170" as="geometry" />
        </mxCell>
        <mxCell id="sBYjH0_UJTp_EUdpmLKk-39" value="" style="ellipse;shape=cloud;whiteSpace=wrap;html=1;fillColor=none;" parent="1" vertex="1">
          <mxGeometry x="-1544" y="624" width="260" height="170" as="geometry" />
        </mxCell>
        <mxCell id="sBYjH0_UJTp_EUdpmLKk-40" value="" style="ellipse;shape=cloud;whiteSpace=wrap;html=1;fillColor=none;" parent="1" vertex="1">
          <mxGeometry x="-1541.5" y="434" width="260" height="170" as="geometry" />
        </mxCell>
        <mxCell id="sBYjH0_UJTp_EUdpmLKk-41" value="" style="ellipse;shape=cloud;whiteSpace=wrap;html=1;fillColor=none;" parent="1" vertex="1">
          <mxGeometry x="-1545" y="250" width="260" height="170" as="geometry" />
        </mxCell>
        <mxCell id="sBYjH0_UJTp_EUdpmLKk-42" value="&lt;font style=&quot;font-size: 20px&quot;&gt;&lt;b&gt;... ...&lt;/b&gt;&lt;/font&gt;" style="text;html=1;strokeColor=none;fillColor=none;align=center;verticalAlign=middle;whiteSpace=wrap;rounded=0;strokeWidth=2;" parent="1" vertex="1">
          <mxGeometry x="-1456.5" y="834" width="85" height="20" as="geometry" />
        </mxCell>
        <mxCell id="sBYjH0_UJTp_EUdpmLKk-50" value="&lt;span style=&quot;font-size: 15px&quot;&gt;Device Group A Certificates Transfer&lt;/span&gt;" style="endArrow=classic;html=1;entryX=0.96;entryY=0.7;entryDx=0;entryDy=0;entryPerimeter=0;exitX=0.25;exitY=0.25;exitDx=0;exitDy=0;exitPerimeter=0;" parent="1" edge="1">
          <mxGeometry x="0.0968" y="4" relative="1" as="geometry">
            <mxPoint x="-781" y="382.5" as="sourcePoint" />
            <mxPoint x="-1296.3999999999999" y="189.0000000000001" as="targetPoint" />
            <mxPoint as="offset" />
          </mxGeometry>
        </mxCell>
        <mxCell id="sBYjH0_UJTp_EUdpmLKk-54" value="&lt;span style=&quot;font-size: 15px&quot;&gt;Device Group B Certificates Transfer&lt;/span&gt;" style="endArrow=classic;html=1;entryX=0.96;entryY=0.7;entryDx=0;entryDy=0;entryPerimeter=0;exitX=0.07;exitY=0.4;exitDx=0;exitDy=0;exitPerimeter=0;" parent="1" source="sBYjH0_UJTp_EUdpmLKk-37" target="sBYjH0_UJTp_EUdpmLKk-41" edge="1">
          <mxGeometry x="0.016" y="2" relative="1" as="geometry">
            <mxPoint x="-779.6" y="590.75" as="sourcePoint" />
            <mxPoint x="-1295" y="397.2499999999998" as="targetPoint" />
            <mxPoint as="offset" />
          </mxGeometry>
        </mxCell>
        <mxCell id="sBYjH0_UJTp_EUdpmLKk-56" value="&lt;span style=&quot;font-size: 15px&quot;&gt;Device Group C Certificates Transfer&lt;/span&gt;" style="endArrow=classic;html=1;entryX=0.96;entryY=0.7;entryDx=0;entryDy=0;entryPerimeter=0;exitX=0.16;exitY=0.55;exitDx=0;exitDy=0;exitPerimeter=0;" parent="1" source="sBYjH0_UJTp_EUdpmLKk-37" edge="1">
          <mxGeometry x="0.0417" y="-3" relative="1" as="geometry">
            <mxPoint x="-789.6" y="683.5" as="sourcePoint" />
            <mxPoint x="-1305" y="489.9999999999998" as="targetPoint" />
            <mxPoint as="offset" />
          </mxGeometry>
        </mxCell>
        <mxCell id="sBYjH0_UJTp_EUdpmLKk-58" value="&lt;span style=&quot;font-size: 15px&quot;&gt;Device Group D Certificates Transfer&lt;/span&gt;" style="endArrow=classic;html=1;entryX=0.88;entryY=0.25;entryDx=0;entryDy=0;entryPerimeter=0;exitX=0.13;exitY=0.77;exitDx=0;exitDy=0;exitPerimeter=0;" parent="1" source="sBYjH0_UJTp_EUdpmLKk-37" target="sBYjH0_UJTp_EUdpmLKk-39" edge="1">
          <mxGeometry x="0.0079" y="1" relative="1" as="geometry">
            <mxPoint x="-709.6" y="817.5" as="sourcePoint" />
            <mxPoint x="-1225" y="623.9999999999998" as="targetPoint" />
            <mxPoint as="offset" />
          </mxGeometry>
        </mxCell>
        <mxCell id="sBYjH0_UJTp_EUdpmLKk-60" value="" style="shape=image;html=1;verticalAlign=top;verticalLabelPosition=bottom;labelBackgroundColor=#ffffff;imageAspect=0;aspect=fixed;image=https://cdn2.iconfinder.com/data/icons/blocked-out-2/29/office-128.png;strokeWidth=2;fillColor=none;" parent="1" vertex="1">
          <mxGeometry x="600" y="1090" width="60" height="60" as="geometry" />
        </mxCell>
        <mxCell id="sBYjH0_UJTp_EUdpmLKk-65" value="PC Station A" style="text;html=1;strokeColor=none;fillColor=none;align=center;verticalAlign=middle;whiteSpace=wrap;rounded=0;fontSize=10;" parent="1" vertex="1">
          <mxGeometry x="-990" y="1303" width="100" height="20" as="geometry" />
        </mxCell>
        <mxCell id="sBYjH0_UJTp_EUdpmLKk-72" value="&lt;font style=&quot;font-size: 15px&quot;&gt;SZBM&lt;/font&gt;" style="text;html=1;strokeColor=none;fillColor=none;align=center;verticalAlign=middle;whiteSpace=wrap;rounded=0;fontSize=14;fontStyle=1" parent="1" vertex="1">
          <mxGeometry x="595" y="1160" width="70" height="20" as="geometry" />
        </mxCell>
        <mxCell id="sBYjH0_UJTp_EUdpmLKk-77" value="" style="shape=image;html=1;verticalAlign=top;verticalLabelPosition=bottom;labelBackgroundColor=#ffffff;imageAspect=0;aspect=fixed;image=https://cdn3.iconfinder.com/data/icons/basic-user-interface-5/64/setting_preference_option_maintenance_main_gear-128.png;strokeWidth=2;fillColor=none;" parent="1" vertex="1">
          <mxGeometry x="-650" y="770" width="80" height="80" as="geometry" />
        </mxCell>
        <mxCell id="sBYjH0_UJTp_EUdpmLKk-78" value="&lt;font style=&quot;font-size: 15px&quot;&gt;Cloud OperationTeam&lt;/font&gt;" style="text;html=1;strokeColor=none;fillColor=none;align=center;verticalAlign=middle;whiteSpace=wrap;rounded=0;fontSize=14;fontStyle=1" parent="1" vertex="1">
          <mxGeometry x="-700" y="850" width="170" height="20" as="geometry" />
        </mxCell>
        <mxCell id="sBYjH0_UJTp_EUdpmLKk-79" value="" style="endArrow=classic;html=1;dashed=1;edgeStyle=orthogonalEdgeStyle;startArrow=classic;entryX=0.96;entryY=0.7;entryDx=0;entryDy=0;entryPerimeter=0;exitX=0.5;exitY=0;exitDx=0;exitDy=0;exitPerimeter=0;" parent="1" source="sBYjH0_UJTp_EUdpmLKk-100" target="sBYjH0_UJTp_EUdpmLKk-37" edge="1">
          <mxGeometry width="50" height="50" relative="1" as="geometry">
            <mxPoint x="-445" y="1220" as="sourcePoint" />
            <mxPoint x="-600" y="547.3100000000002" as="targetPoint" />
            <Array as="points">
              <mxPoint x="-420" y="459" />
            </Array>
          </mxGeometry>
        </mxCell>
        <mxCell id="sBYjH0_UJTp_EUdpmLKk-80" value="CA &amp;amp; Device Certificate Management&amp;nbsp;" style="edgeLabel;html=1;align=center;verticalAlign=middle;resizable=0;points=[];fontSize=15;" parent="sBYjH0_UJTp_EUdpmLKk-79" vertex="1" connectable="0">
          <mxGeometry x="0.3078" y="-1" relative="1" as="geometry">
            <mxPoint x="44" as="offset" />
          </mxGeometry>
        </mxCell>
        <mxCell id="sBYjH0_UJTp_EUdpmLKk-82" value="3" style="ellipse;whiteSpace=wrap;html=1;aspect=fixed;strokeColor=#FFB570;fontSize=14;" parent="1" vertex="1">
          <mxGeometry x="-182" y="1248" width="30" height="30" as="geometry" />
        </mxCell>
        <mxCell id="sBYjH0_UJTp_EUdpmLKk-90" value="Common Wi-Fi Module" style="text;html=1;strokeColor=none;fillColor=none;align=center;verticalAlign=middle;whiteSpace=wrap;rounded=0;fontSize=10;" parent="1" vertex="1">
          <mxGeometry x="-164" y="1387.75" width="100" height="20" as="geometry" />
        </mxCell>
        <mxCell id="sBYjH0_UJTp_EUdpmLKk-91" value="Device Initialized Operation" style="text;html=1;strokeColor=none;fillColor=none;align=center;verticalAlign=middle;whiteSpace=wrap;rounded=0;fontSize=14;" parent="1" vertex="1">
          <mxGeometry x="-167.22000000000003" y="1248" width="150" height="20" as="geometry" />
        </mxCell>
        <mxCell id="sBYjH0_UJTp_EUdpmLKk-94" value="2" style="ellipse;whiteSpace=wrap;html=1;aspect=fixed;strokeColor=#FFB570;fontSize=14;" parent="1" vertex="1">
          <mxGeometry x="-655" y="1248" width="30" height="30" as="geometry" />
        </mxCell>
        <mxCell id="sBYjH0_UJTp_EUdpmLKk-95" value="" style="pointerEvents=1;verticalLabelPosition=bottom;shadow=0;dashed=0;align=center;html=1;verticalAlign=top;shape=mxgraph.electrical.miscellaneous.terminal_board" parent="1" vertex="1">
          <mxGeometry x="-555" y="1398" width="40" height="80" as="geometry" />
        </mxCell>
        <mxCell id="sBYjH0_UJTp_EUdpmLKk-96" value="" style="pointerEvents=1;verticalLabelPosition=bottom;shadow=0;dashed=0;align=center;html=1;verticalAlign=top;shape=mxgraph.electrical.miscellaneous.terminal_board" parent="1" vertex="1">
          <mxGeometry x="-515" y="1398" width="40" height="80" as="geometry" />
        </mxCell>
        <mxCell id="sBYjH0_UJTp_EUdpmLKk-97" value="" style="endArrow=classic;html=1;dashed=1;edgeStyle=orthogonalEdgeStyle;exitX=0.5;exitY=0;exitDx=0;exitDy=0;startArrow=classic;" parent="1" source="sBYjH0_UJTp_EUdpmLKk-99" edge="1">
          <mxGeometry width="50" height="50" relative="1" as="geometry">
            <mxPoint x="-515" y="1373" as="sourcePoint" />
            <mxPoint x="-425" y="1308" as="targetPoint" />
            <Array as="points">
              <mxPoint x="-515" y="1348" />
              <mxPoint x="-425" y="1348" />
            </Array>
          </mxGeometry>
        </mxCell>
        <mxCell id="sBYjH0_UJTp_EUdpmLKk-98" value="USB Cable" style="edgeLabel;html=1;align=center;verticalAlign=middle;resizable=0;points=[];" parent="sBYjH0_UJTp_EUdpmLKk-97" vertex="1" connectable="0">
          <mxGeometry x="0.3078" y="-1" relative="1" as="geometry">
            <mxPoint as="offset" />
          </mxGeometry>
        </mxCell>
        <mxCell id="sBYjH0_UJTp_EUdpmLKk-99" value="" style="whiteSpace=wrap;html=1;aspect=fixed;fillColor=none;strokeColor=#3333FF;" parent="1" vertex="1">
          <mxGeometry x="-565" y="1388" width="100" height="100" as="geometry" />
        </mxCell>
        <mxCell id="sBYjH0_UJTp_EUdpmLKk-100" value="" style="verticalLabelPosition=bottom;html=1;verticalAlign=top;align=center;strokeColor=none;fillColor=#00BEF2;shape=mxgraph.azure.computer;pointerEvents=1;" parent="1" vertex="1">
          <mxGeometry x="-445" y="1258" width="50" height="45" as="geometry" />
        </mxCell>
        <mxCell id="sBYjH0_UJTp_EUdpmLKk-101" value="FCT Fixture B" style="text;html=1;strokeColor=none;fillColor=none;align=center;verticalAlign=middle;whiteSpace=wrap;rounded=0;fontColor=#3333FF;" parent="1" vertex="1">
          <mxGeometry x="-555" y="1488" width="80" height="20" as="geometry" />
        </mxCell>
        <mxCell id="sBYjH0_UJTp_EUdpmLKk-102" value="Common Wi-Fi Modules" style="text;html=1;strokeColor=none;fillColor=none;align=center;verticalAlign=middle;whiteSpace=wrap;rounded=0;fontSize=10;" parent="1" vertex="1">
          <mxGeometry x="-655" y="1428" width="100" height="20" as="geometry" />
        </mxCell>
        <mxCell id="sBYjH0_UJTp_EUdpmLKk-103" value="" style="html=1;shadow=0;dashed=0;align=center;verticalAlign=middle;shape=mxgraph.arrows2.arrow;dy=0.6;dx=40;notch=0;strokeColor=#000000;fillColor=none;fontSize=10;fontColor=#000000;" parent="1" vertex="1">
          <mxGeometry x="-305" y="1368" width="60" height="30" as="geometry" />
        </mxCell>
        <mxCell id="sBYjH0_UJTp_EUdpmLKk-105" value="PC Station B" style="text;html=1;strokeColor=none;fillColor=none;align=center;verticalAlign=middle;whiteSpace=wrap;rounded=0;fontSize=10;" parent="1" vertex="1">
          <mxGeometry x="-520" y="1303" width="100" height="20" as="geometry" />
        </mxCell>
        <mxCell id="sBYjH0_UJTp_EUdpmLKk-107" value="" style="rounded=0;whiteSpace=wrap;html=1;strokeWidth=1;fillColor=none;" parent="1" vertex="1">
          <mxGeometry x="-133.56999999999994" y="1414.46" width="40" height="22" as="geometry" />
        </mxCell>
        <mxCell id="sBYjH0_UJTp_EUdpmLKk-112" style="edgeStyle=none;rounded=0;orthogonalLoop=1;jettySize=auto;html=1;exitX=1;exitY=0;exitDx=0;exitDy=0;startArrow=classic;startFill=1;" parent="1" source="sBYjH0_UJTp_EUdpmLKk-107" target="sBYjH0_UJTp_EUdpmLKk-107" edge="1">
          <mxGeometry relative="1" as="geometry" />
        </mxCell>
        <mxCell id="sBYjH0_UJTp_EUdpmLKk-113" style="edgeStyle=none;rounded=0;orthogonalLoop=1;jettySize=auto;html=1;exitX=1;exitY=1;exitDx=0;exitDy=0;startArrow=classic;startFill=1;" parent="1" source="sBYjH0_UJTp_EUdpmLKk-107" target="sBYjH0_UJTp_EUdpmLKk-107" edge="1">
          <mxGeometry relative="1" as="geometry" />
        </mxCell>
        <mxCell id="sBYjH0_UJTp_EUdpmLKk-114" value="" style="ellipse;whiteSpace=wrap;html=1;aspect=fixed;strokeWidth=1;fillColor=none;" parent="1" vertex="1">
          <mxGeometry x="-117.56999999999994" y="1421.46" width="8" height="8" as="geometry" />
        </mxCell>
        <mxCell id="sBYjH0_UJTp_EUdpmLKk-117" value="" style="shape=image;html=1;verticalAlign=top;verticalLabelPosition=bottom;labelBackgroundColor=#ffffff;imageAspect=0;aspect=fixed;image=https://cdn3.iconfinder.com/data/icons/network-and-communications-10/32/network_hardware_processor_microprocessor-128.png;strokeWidth=1;fillColor=none;" parent="1" vertex="1">
          <mxGeometry x="-53.569999999999936" y="1400.25" width="46" height="46" as="geometry" />
        </mxCell>
        <mxCell id="sBYjH0_UJTp_EUdpmLKk-121" value="" style="verticalLabelPosition=bottom;shadow=0;dashed=0;align=center;html=1;verticalAlign=top;shape=mxgraph.electrical.transmission.cable_group;pointerEvents=1;strokeWidth=1;fillColor=none;" parent="1" vertex="1">
          <mxGeometry x="-93.56999999999994" y="1418.5" width="42" height="14.5" as="geometry" />
        </mxCell>
        <mxCell id="sBYjH0_UJTp_EUdpmLKk-122" value="Device MCU" style="text;html=1;strokeColor=none;fillColor=none;align=center;verticalAlign=middle;whiteSpace=wrap;rounded=0;fontSize=10;" parent="1" vertex="1">
          <mxGeometry x="-79.56999999999994" y="1380.25" width="100" height="20" as="geometry" />
        </mxCell>
        <mxCell id="sBYjH0_UJTp_EUdpmLKk-123" value="UART Cable" style="text;html=1;strokeColor=none;fillColor=none;align=center;verticalAlign=middle;whiteSpace=wrap;rounded=0;fontSize=7;" parent="1" vertex="1">
          <mxGeometry x="-100.06999999999994" y="1429" width="57" height="20" as="geometry" />
        </mxCell>
        <mxCell id="sBYjH0_UJTp_EUdpmLKk-124" value="" style="rounded=1;whiteSpace=wrap;html=1;strokeWidth=1;fillColor=none;fontSize=7;fontColor=#1820F5;strokeColor=#1820F5;" parent="1" vertex="1">
          <mxGeometry x="-153" y="1373" width="159" height="91.75" as="geometry" />
        </mxCell>
        <mxCell id="sBYjH0_UJTp_EUdpmLKk-127" value="IoT Device" style="text;html=1;strokeColor=none;fillColor=none;align=center;verticalAlign=middle;whiteSpace=wrap;rounded=0;fontColor=#3333FF;" parent="1" vertex="1">
          <mxGeometry x="6" y="1435.25" width="80" height="20" as="geometry" />
        </mxCell>
        <mxCell id="sBYjH0_UJTp_EUdpmLKk-128" value="" style="shape=image;html=1;verticalAlign=top;verticalLabelPosition=bottom;labelBackgroundColor=#ffffff;imageAspect=0;aspect=fixed;image=https://cdn2.iconfinder.com/data/icons/bathroom-line-1/64/Bidets-128.png;strokeColor=#1820F5;strokeWidth=1;fillColor=none;fontSize=7;fontColor=#1820F5;" parent="1" vertex="1">
          <mxGeometry x="11" y="1404.88" width="32.5" height="32.5" as="geometry" />
        </mxCell>
        <mxCell id="sBYjH0_UJTp_EUdpmLKk-129" value="" style="shape=image;html=1;verticalAlign=top;verticalLabelPosition=bottom;labelBackgroundColor=#ffffff;imageAspect=0;aspect=fixed;image=https://cdn2.iconfinder.com/data/icons/bathroom-line-1/64/faucet-128.png;strokeColor=#1820F5;strokeWidth=1;fillColor=none;fontSize=7;fontColor=#1820F5;" parent="1" vertex="1">
          <mxGeometry x="36.13000000000011" y="1382.5" width="29.75" height="29.75" as="geometry" />
        </mxCell>
        <mxCell id="sBYjH0_UJTp_EUdpmLKk-130" value="" style="shape=image;html=1;verticalAlign=top;verticalLabelPosition=bottom;labelBackgroundColor=#ffffff;imageAspect=0;aspect=fixed;image=https://cdn2.iconfinder.com/data/icons/bathroom-line-1/64/Tub-128.png;strokeColor=#1820F5;strokeWidth=1;fillColor=none;fontSize=7;fontColor=#1820F5;" parent="1" vertex="1">
          <mxGeometry x="49" y="1403" width="32" height="32" as="geometry" />
        </mxCell>
        <mxCell id="sBYjH0_UJTp_EUdpmLKk-135" value="" style="html=1;verticalLabelPosition=bottom;align=center;labelBackgroundColor=#ffffff;verticalAlign=top;strokeWidth=2;strokeColor=#0080F0;shadow=0;dashed=0;shape=mxgraph.ios7.icons.bluetooth;pointerEvents=1;fillColor=none;fontSize=7;fontColor=#1820F5;rotation=-30;" parent="1" vertex="1">
          <mxGeometry x="-58.069999999999936" y="1315" width="15" height="28.799999999999997" as="geometry" />
        </mxCell>
        <mxCell id="sBYjH0_UJTp_EUdpmLKk-136" value="" style="aspect=fixed;html=1;points=[];align=center;image;fontSize=12;image=img/lib/mscae/App_Service_Mobile_App.svg;strokeColor=#1820F5;strokeWidth=1;fillColor=none;" parent="1" vertex="1">
          <mxGeometry x="11.940000000000055" y="1273" width="28.56" height="42" as="geometry" />
        </mxCell>
        <mxCell id="sBYjH0_UJTp_EUdpmLKk-146" value="" style="endArrow=classic;html=1;dashed=1;edgeStyle=orthogonalEdgeStyle;startArrow=classic;entryX=0.875;entryY=0.5;entryDx=0;entryDy=0;entryPerimeter=0;" parent="1" source="sBYjH0_UJTp_EUdpmLKk-136" target="sBYjH0_UJTp_EUdpmLKk-37" edge="1">
          <mxGeometry width="50" height="50" relative="1" as="geometry">
            <mxPoint x="-0.18000000000029104" y="1268.0049999999999" as="sourcePoint" />
            <mxPoint x="-150.97999999999956" y="459.01" as="targetPoint" />
            <Array as="points">
              <mxPoint x="25" y="425" />
            </Array>
          </mxGeometry>
        </mxCell>
        <mxCell id="sBYjH0_UJTp_EUdpmLKk-147" value="Initialize Device Certificate Transfer From CA Cloud To Production Cloud&amp;nbsp;" style="edgeLabel;html=1;align=center;verticalAlign=middle;resizable=0;points=[];fontSize=15;" parent="sBYjH0_UJTp_EUdpmLKk-146" vertex="1" connectable="0">
          <mxGeometry x="0.3078" y="-1" relative="1" as="geometry">
            <mxPoint x="-127.48" y="-4" as="offset" />
          </mxGeometry>
        </mxCell>
        <mxCell id="sBYjH0_UJTp_EUdpmLKk-149" value="" style="endArrow=classic;html=1;dashed=1;edgeStyle=orthogonalEdgeStyle;startArrow=classic;entryX=0.875;entryY=0.5;entryDx=0;entryDy=0;entryPerimeter=0;" parent="1" target="sBYjH0_UJTp_EUdpmLKk-36" edge="1" source="sBYjH0_UJTp_EUdpmLKk-175">
          <mxGeometry width="50" height="50" relative="1" as="geometry">
            <mxPoint x="230" y="790" as="sourcePoint" />
            <mxPoint x="-580" y="250" as="targetPoint" />
            <Array as="points">
              <mxPoint x="521" y="155" />
            </Array>
          </mxGeometry>
        </mxCell>
        <mxCell id="sBYjH0_UJTp_EUdpmLKk-150" value="1st Time Operation In Production Cloud&amp;nbsp;" style="edgeLabel;html=1;align=center;verticalAlign=middle;resizable=0;points=[];fontSize=15;" parent="sBYjH0_UJTp_EUdpmLKk-149" vertex="1" connectable="0">
          <mxGeometry x="0.3078" y="-1" relative="1" as="geometry">
            <mxPoint x="208.55" as="offset" />
          </mxGeometry>
        </mxCell>
        <mxCell id="sBYjH0_UJTp_EUdpmLKk-152" value="" style="shape=image;html=1;verticalAlign=top;verticalLabelPosition=bottom;labelBackgroundColor=#ffffff;imageAspect=0;aspect=fixed;image=https://cdn4.iconfinder.com/data/icons/construction-hand-drawn/38/construction_hand_drawn_icon__worker-128.png;strokeColor=#1820F5;strokeWidth=1;fillColor=none;fontSize=20;fontColor=#1820F5;" parent="1" vertex="1">
          <mxGeometry x="56" y="1475.05" width="43.9" height="43.9" as="geometry" />
        </mxCell>
        <mxCell id="sBYjH0_UJTp_EUdpmLKk-153" value="" style="shape=image;html=1;verticalAlign=top;verticalLabelPosition=bottom;labelBackgroundColor=#ffffff;imageAspect=0;aspect=fixed;image=https://cdn4.iconfinder.com/data/icons/construction-hand-drawn/38/construction_hand_drawn_icon__worker-128.png;strokeColor=#1820F5;strokeWidth=1;fillColor=none;fontSize=20;fontColor=#1820F5;" parent="1" vertex="1">
          <mxGeometry x="-420" y="1479.2" width="43.9" height="43.9" as="geometry" />
        </mxCell>
        <mxCell id="sBYjH0_UJTp_EUdpmLKk-154" value="" style="shape=image;html=1;verticalAlign=top;verticalLabelPosition=bottom;labelBackgroundColor=#ffffff;imageAspect=0;aspect=fixed;image=https://cdn4.iconfinder.com/data/icons/construction-hand-drawn/38/construction_hand_drawn_icon__worker-128.png;strokeColor=#1820F5;strokeWidth=1;fillColor=none;fontSize=20;fontColor=#1820F5;" parent="1" vertex="1">
          <mxGeometry x="-895" y="1475.05" width="43.9" height="43.9" as="geometry" />
        </mxCell>
        <mxCell id="sBYjH0_UJTp_EUdpmLKk-155" value="" style="rounded=1;whiteSpace=wrap;html=1;fillColor=none;fontSize=10;dashed=1;" parent="1" vertex="1">
          <mxGeometry x="270" y="1229.38" width="320" height="310" as="geometry" />
        </mxCell>
        <mxCell id="sBYjH0_UJTp_EUdpmLKk-156" value="4" style="ellipse;whiteSpace=wrap;html=1;aspect=fixed;strokeColor=#FFB570;fontSize=14;" parent="1" vertex="1">
          <mxGeometry x="293" y="1249.38" width="30" height="30" as="geometry" />
        </mxCell>
        <mxCell id="sBYjH0_UJTp_EUdpmLKk-157" value="Common Wi-Fi Module" style="text;html=1;strokeColor=none;fillColor=none;align=center;verticalAlign=middle;whiteSpace=wrap;rounded=0;fontSize=10;" parent="1" vertex="1">
          <mxGeometry x="311" y="1389.13" width="100" height="20" as="geometry" />
        </mxCell>
        <mxCell id="sBYjH0_UJTp_EUdpmLKk-158" value="Device 1st Time Operation Validation" style="text;html=1;strokeColor=none;fillColor=none;align=center;verticalAlign=middle;whiteSpace=wrap;rounded=0;fontSize=14;" parent="1" vertex="1">
          <mxGeometry x="321.99999999999994" y="1249.38" width="150" height="20" as="geometry" />
        </mxCell>
        <mxCell id="sBYjH0_UJTp_EUdpmLKk-159" value="" style="rounded=0;whiteSpace=wrap;html=1;strokeWidth=1;fillColor=none;" parent="1" vertex="1">
          <mxGeometry x="341.43000000000006" y="1415.8400000000001" width="40" height="22" as="geometry" />
        </mxCell>
        <mxCell id="sBYjH0_UJTp_EUdpmLKk-160" style="edgeStyle=none;rounded=0;orthogonalLoop=1;jettySize=auto;html=1;exitX=1;exitY=0;exitDx=0;exitDy=0;startArrow=classic;startFill=1;" parent="1" source="sBYjH0_UJTp_EUdpmLKk-159" target="sBYjH0_UJTp_EUdpmLKk-159" edge="1">
          <mxGeometry relative="1" as="geometry" />
        </mxCell>
        <mxCell id="sBYjH0_UJTp_EUdpmLKk-161" style="edgeStyle=none;rounded=0;orthogonalLoop=1;jettySize=auto;html=1;exitX=1;exitY=1;exitDx=0;exitDy=0;startArrow=classic;startFill=1;" parent="1" source="sBYjH0_UJTp_EUdpmLKk-159" target="sBYjH0_UJTp_EUdpmLKk-159" edge="1">
          <mxGeometry relative="1" as="geometry" />
        </mxCell>
        <mxCell id="sBYjH0_UJTp_EUdpmLKk-162" value="" style="ellipse;whiteSpace=wrap;html=1;aspect=fixed;strokeWidth=1;fillColor=none;" parent="1" vertex="1">
          <mxGeometry x="357.43000000000006" y="1422.8400000000001" width="8" height="8" as="geometry" />
        </mxCell>
        <mxCell id="sBYjH0_UJTp_EUdpmLKk-163" value="" style="shape=image;html=1;verticalAlign=top;verticalLabelPosition=bottom;labelBackgroundColor=#ffffff;imageAspect=0;aspect=fixed;image=https://cdn3.iconfinder.com/data/icons/network-and-communications-10/32/network_hardware_processor_microprocessor-128.png;strokeWidth=1;fillColor=none;" parent="1" vertex="1">
          <mxGeometry x="421.43000000000006" y="1401.63" width="46" height="46" as="geometry" />
        </mxCell>
        <mxCell id="sBYjH0_UJTp_EUdpmLKk-164" value="" style="verticalLabelPosition=bottom;shadow=0;dashed=0;align=center;html=1;verticalAlign=top;shape=mxgraph.electrical.transmission.cable_group;pointerEvents=1;strokeWidth=1;fillColor=none;" parent="1" vertex="1">
          <mxGeometry x="381.43000000000006" y="1419.88" width="42" height="14.5" as="geometry" />
        </mxCell>
        <mxCell id="sBYjH0_UJTp_EUdpmLKk-165" value="Device MCU" style="text;html=1;strokeColor=none;fillColor=none;align=center;verticalAlign=middle;whiteSpace=wrap;rounded=0;fontSize=10;" parent="1" vertex="1">
          <mxGeometry x="395.43000000000006" y="1381.63" width="100" height="20" as="geometry" />
        </mxCell>
        <mxCell id="sBYjH0_UJTp_EUdpmLKk-166" value="UART Cable" style="text;html=1;strokeColor=none;fillColor=none;align=center;verticalAlign=middle;whiteSpace=wrap;rounded=0;fontSize=7;" parent="1" vertex="1">
          <mxGeometry x="374.93000000000006" y="1430.38" width="57" height="20" as="geometry" />
        </mxCell>
        <mxCell id="sBYjH0_UJTp_EUdpmLKk-167" value="" style="rounded=1;whiteSpace=wrap;html=1;strokeWidth=1;fillColor=none;fontSize=7;fontColor=#1820F5;strokeColor=#1820F5;" parent="1" vertex="1">
          <mxGeometry x="322" y="1374.38" width="159" height="91.75" as="geometry" />
        </mxCell>
        <mxCell id="sBYjH0_UJTp_EUdpmLKk-168" value="IoT Device" style="text;html=1;strokeColor=none;fillColor=none;align=center;verticalAlign=middle;whiteSpace=wrap;rounded=0;fontColor=#3333FF;" parent="1" vertex="1">
          <mxGeometry x="481" y="1436.63" width="80" height="20" as="geometry" />
        </mxCell>
        <mxCell id="sBYjH0_UJTp_EUdpmLKk-169" value="" style="shape=image;html=1;verticalAlign=top;verticalLabelPosition=bottom;labelBackgroundColor=#ffffff;imageAspect=0;aspect=fixed;image=https://cdn2.iconfinder.com/data/icons/bathroom-line-1/64/Bidets-128.png;strokeColor=#1820F5;strokeWidth=1;fillColor=none;fontSize=7;fontColor=#1820F5;" parent="1" vertex="1">
          <mxGeometry x="486" y="1406.2600000000002" width="32.5" height="32.5" as="geometry" />
        </mxCell>
        <mxCell id="sBYjH0_UJTp_EUdpmLKk-170" value="" style="shape=image;html=1;verticalAlign=top;verticalLabelPosition=bottom;labelBackgroundColor=#ffffff;imageAspect=0;aspect=fixed;image=https://cdn2.iconfinder.com/data/icons/bathroom-line-1/64/faucet-128.png;strokeColor=#1820F5;strokeWidth=1;fillColor=none;fontSize=7;fontColor=#1820F5;" parent="1" vertex="1">
          <mxGeometry x="511.1300000000001" y="1383.88" width="29.75" height="29.75" as="geometry" />
        </mxCell>
        <mxCell id="sBYjH0_UJTp_EUdpmLKk-171" value="" style="shape=image;html=1;verticalAlign=top;verticalLabelPosition=bottom;labelBackgroundColor=#ffffff;imageAspect=0;aspect=fixed;image=https://cdn2.iconfinder.com/data/icons/bathroom-line-1/64/Tub-128.png;strokeColor=#1820F5;strokeWidth=1;fillColor=none;fontSize=7;fontColor=#1820F5;" parent="1" vertex="1">
          <mxGeometry x="524" y="1404.38" width="32" height="32" as="geometry" />
        </mxCell>
        <mxCell id="sBYjH0_UJTp_EUdpmLKk-172" value="" style="html=1;verticalLabelPosition=bottom;align=center;labelBackgroundColor=#ffffff;verticalAlign=top;strokeWidth=2;strokeColor=#0080F0;shadow=0;dashed=0;shape=mxgraph.ios7.icons.wifi;pointerEvents=1;fillColor=none;fontSize=7;fontColor=#1820F5;rotation=30;" parent="1" vertex="1">
          <mxGeometry x="420" y="1324.38" width="29.7" height="21" as="geometry" />
        </mxCell>
        <mxCell id="sBYjH0_UJTp_EUdpmLKk-173" value="" style="html=1;verticalLabelPosition=bottom;align=center;labelBackgroundColor=#ffffff;verticalAlign=top;strokeWidth=2;strokeColor=#0080F0;shadow=0;dashed=0;shape=mxgraph.ios7.icons.bluetooth;pointerEvents=1;fillColor=none;fontSize=7;fontColor=#1820F5;rotation=20;" parent="1" vertex="1">
          <mxGeometry x="421.43000000000006" y="1475.0500000000002" width="15" height="28.799999999999997" as="geometry" />
        </mxCell>
        <mxCell id="sBYjH0_UJTp_EUdpmLKk-174" value="" style="aspect=fixed;html=1;points=[];align=center;image;fontSize=12;image=img/lib/mscae/App_Service_Mobile_App.svg;strokeColor=#1820F5;strokeWidth=1;fillColor=none;" parent="1" vertex="1">
          <mxGeometry x="472" y="1476" width="28.56" height="42" as="geometry" />
        </mxCell>
        <mxCell id="sBYjH0_UJTp_EUdpmLKk-175" value="" style="image;html=1;image=img/lib/clip_art/networking/Wireless_Router_N_128x128.png;strokeColor=#1820F5;strokeWidth=1;fillColor=none;fontSize=7;fontColor=#1820F5;" parent="1" vertex="1">
          <mxGeometry x="482" y="1258.38" width="77" height="55" as="geometry" />
        </mxCell>
        <mxCell id="sBYjH0_UJTp_EUdpmLKk-176" value="" style="shape=image;html=1;verticalAlign=top;verticalLabelPosition=bottom;labelBackgroundColor=#ffffff;imageAspect=0;aspect=fixed;image=https://cdn4.iconfinder.com/data/icons/construction-hand-drawn/38/construction_hand_drawn_icon__worker-128.png;strokeColor=#1820F5;strokeWidth=1;fillColor=none;fontSize=20;fontColor=#1820F5;" parent="1" vertex="1">
          <mxGeometry x="531" y="1476.43" width="43.9" height="43.9" as="geometry" />
        </mxCell>
        <mxCell id="sBYjH0_UJTp_EUdpmLKk-177" value="Customied Manufacture APP" style="text;html=1;strokeColor=none;fillColor=none;align=center;verticalAlign=middle;whiteSpace=wrap;rounded=0;fontColor=#3333FF;" parent="1" vertex="1">
          <mxGeometry x="-17.22" y="1323.8" width="97.75" height="20" as="geometry" />
        </mxCell>
        <mxCell id="vn5zpIuFy9Mp_Aaqx6cl-4" value="User APP" style="text;html=1;strokeColor=none;fillColor=none;align=center;verticalAlign=middle;whiteSpace=wrap;rounded=0;fontColor=#3333FF;" vertex="1" parent="1">
          <mxGeometry x="439.13" y="1517" width="97.75" height="20" as="geometry" />
        </mxCell>
        <mxCell id="vn5zpIuFy9Mp_Aaqx6cl-5" value="" style="html=1;shadow=0;dashed=0;align=center;verticalAlign=middle;shape=mxgraph.arrows2.arrow;dy=0.6;dx=40;notch=0;strokeColor=#000000;fillColor=none;fontSize=10;fontColor=#000000;" vertex="1" parent="1">
          <mxGeometry x="165" y="1371.63" width="60" height="30" as="geometry" />
        </mxCell>
      </root>
    </mxGraphModel>
  </diagram>
</mxfile>
